<svg xmlns="http://www.w3.org/2000/svg" xmlns:xlink="http://www.w3.org/1999/xlink" width="32" height="32" viewBox="0 0 32 32"><defs><linearGradient id="a"><stop offset="0" stop-color="#000092"/><stop offset="1" stop-color="#ff00f3"/></linearGradient><linearGradient id="b" x1="1" x2="30" y1="16.225" y2="16.225" gradientUnits="userSpaceOnUse" xlink:href="#a"/></defs><path fill="url(#b)" d="M 1.40625,4 C 1.1770488,4.0437333 0.99588831,4.2667 1,4.5 l 0,15 c 2.62e-5,0.261792 0.2382078,0.499974 0.5,0.5 l 4.5,0 0,4.5 c -0.010672,0.407451 0.6054818,0.649511 0.875,0.34375 L 8.125,23.5 l 13.0625,0 4.4375,4.8125 C 25.887581,28.610667 26.485711,28.397049 26.5,28 l 0,-4.5 4.5,0 c 0.261792,-2.6e-5 0.499974,-0.238208 0.5,-0.5 l 0,-15 C 31.499974,7.7382078 31.261792,7.5000262 31,7.5 l -5,0 0,-3 C 25.999974,4.2382078 25.761792,4.0000262 25.5,4 L 1.5,4 C 1.468842,3.99707 1.437408,3.99707 1.40625,4 z M 2,5 25,5 25,18.96875 11.15625,19 c -0.01041,-3.26e-4 -0.02084,-3.26e-4 -0.03125,0 -0.139409,-0.0033 -0.279164,0.05495 -0.375,0.15625 L 7,23.21875 7,19.5 C 6.9999738,19.238208 6.7617922,19.000026 6.5,19 L 2,19 z m 6,2 0,1 0.5,0 0.71875,0 0.0625,0 1.5,6.1875 c -0.481287,0.251095 -0.8125127,0.73703 -0.8125,1.3125 -1.81e-5,0.8221 0.67791,1.5 1.5,1.5 0.822089,0 1.500018,-0.6779 1.5,-1.5 4e-6,-0.171271 -0.03987,-0.346072 -0.09375,-0.5 L 14,15 c -0.05388,0.153928 -0.09375,0.328729 -0.09375,0.5 -1.8e-5,0.8221 0.67791,1.5 1.5,1.5 0.822089,0 1.500018,-0.6779 1.5,-1.5 1.6e-5,-0.749861 -0.558267,-1.363842 -1.28125,-1.46875 C 14.373243,13.92984 13.024728,14 11.75,14 l -0.25,-1 4.6875,0 c 0.217057,0.01078 0.432339,-0.137227 0.5,-0.34375 l 1.28125,-4 C 18.066453,8.3592017 17.812679,8.0039178 17.5,8 L 10.3125,8 10.15625,7.375 C 10.105976,7.1765735 9.9225311,7.0193352 9.71875,7 l -0.5,0 L 8.5,7 z m 18.03125,1.5 4.46875,0 0,14 -4.5,0 c -0.261792,2.6e-5 -0.499974,0.238208 -0.5,0.5 l 0,3.71875 -3.75,-4.0625 C 21.654164,22.554953 21.514409,22.496722 21.375,22.5 L 9.03125,22.5 11.34375,20 25.5,20 C 26.018586,20 26,19.868915 26,19.5 z M 10.5625,9 l 6.25,0 -0.3125,1 -3.125,0 0,1 2.78125,0 -0.3125,1 -4.5625,0 z M 27,10.5 l 0,1 3,0 0,-1 z m 0,2 0,1 3,0 0,-1 z m 0,2 0,1 3,0 0,-1 z m -15.65625,0.5 0.125,0 c 0.281375,0 0.500006,0.2181 0.5,0.5 6e-6,0.2819 -0.218625,0.5 -0.5,0.5 -0.281375,0 -0.500007,-0.2181 -0.5,-0.5 -6e-6,-0.242434 0.150754,-0.450082 0.375,-0.5 z m 4.0625,0 c 0.281375,0 0.500006,0.2181 0.5,0.5 6e-6,0.2819 -0.218625,0.5 -0.5,0.5 -0.281375,0 -0.500006,-0.2181 -0.5,-0.5 -6e-6,-0.2819 0.218625,-0.5 0.5,-0.5 z" color="#000" font-size="medium" overflow="visible" style="text-indent:0;text-align:start;line-height:125%;text-transform:none;block-progression:tb;marker:none;-inkscape-font-specification:Sans" font-family="sans-serif" font-weight="400" letter-spacing="0" word-spacing="0"/></svg>