<svg xmlns="http://www.w3.org/2000/svg" xmlns:xlink="http://www.w3.org/1999/xlink" width="32" height="32" viewBox="0 0 32 32"><defs><linearGradient id="a"><stop offset="0" stop-color="#000092"/><stop offset="1" stop-color="#ff00f3"/></linearGradient><linearGradient id="b" x1="2.993" x2="26" y1="15.999" y2="15.999" gradientUnits="userSpaceOnUse" xlink:href="#a"/></defs><g style="line-height:125%"><path fill="url(#b)" d="M 8.40625,2 C 8.1770488,2.0437333 7.9958883,2.2667 8,2.5 l 0,27 c 2.62e-5,0.261792 0.2382078,0.499974 0.5,0.5 l 15,0 c 0.261792,-2.6e-5 0.499974,-0.238208 0.5,-0.5 l 0,-27 C 23.999974,2.2382078 23.761792,2.0000262 23.5,2 l -15,0 c -0.031158,-0.00293 -0.062592,-0.00293 -0.09375,0 z M 9,3 23,3 23,29 9,29 z m 5,1 0,1 4,0 0,-1 z M 5.25,8.9375 5,9.375 C 4.6789517,9.791985 4.4859117,10.258543 4.25,10.71875 l 0.875,0.4375 0.21875,-0.4375 L 5.375,10.65625 5.84375,9.875 6.125,9.46875 z m 21.5,0 -0.875,0.53125 0.28125,0.40625 c 0.28589,0.402794 0.490668,0.847002 0.71875,1.28125 l 0.875,-0.4375 C 27.557942,10.236657 27.266264,9.8187737 27,9.375 z M 10.5,11 l 0,1 0.5,0 0.71875,0 0.0625,0 1.5,6.1875 c -0.480713,0.250536 -0.812513,0.73703 -0.8125,1.3125 -1.9e-5,0.8221 0.67791,1.5 1.5,1.5 0.822089,0 1.500018,-0.6779 1.5,-1.5 4e-6,-0.171271 -0.03973,-0.346203 -0.09375,-0.5 l 1.125,0 c -0.05402,0.153797 -0.09375,0.328729 -0.09375,0.5 -1.8e-5,0.8221 0.67791,1.5 1.5,1.5 0.822089,0 1.500018,-0.6779 1.5,-1.5 1.6e-5,-0.749861 -0.558553,-1.364119 -1.28125,-1.46875 -0.03012,-0.01348 -0.06157,-0.02396 -0.09375,-0.03125 -0.01,-8.12e-4 -0.02122,6.12e-4 -0.03125,0 l -3.75,0 -0.25,-1 4.6875,0 c 0.206749,-0.0026 0.404138,-0.147339 0.46875,-0.34375 l 1.3125,-4 C 20.566453,12.359202 20.312679,12.003918 20,12 l -7.1875,0 -0.15625,-0.625 C 12.605976,11.176573 12.422531,11.019335 12.21875,11 l -0.5,0 L 11,11 z M 3.78125,11.6875 3.625,12.15625 c -0.1136487,0.335742 -0.1859063,0.66263 -0.28125,1 l -0.125,0.5 1,0.21875 0.09375,-0.5 L 4.40625,13 4.59375,12.46875 4.75,12 z m 24.4375,0 L 27.25,12 27.40625,12.46875 27.59375,13 l 0.09375,0.375 0.125,0.5 0.96875,-0.21875 -0.125,-0.5 c -0.07966,-0.341374 -0.178176,-0.661878 -0.28125,-1 z M 13.0625,13 l 6.25,0 -0.3125,1 -3.125,0 0,1 2.78125,0 -0.3125,1 -4.5625,0 z m -10,1.71875 -0.03125,0.5 C 2.970031,15.558539 3,15.906478 3,16.25 l 0,0.5 1,0 0,-0.5 0,-0.75 0.03125,-0.21875 0.03125,-0.5 z m 25.875,0 -1,0.0625 0.03125,0.5 L 28,15.5 l 0,0.75 0,0.5 1,0 0,-0.5 c 0.052,-0.346324 -0.01712,-0.689301 -0.03125,-1.03125 z M 4.09375,17.625 3.125,17.84375 l 0.09375,0.5 c 0.064337,0.34453 0.1869897,0.668064 0.28125,1 l 0.125,0.5 0.96875,-0.3125 L 4.4375,19.0625 4.375,18.8125 4.21875,18.125 z m 23.8125,0 -0.125,0.5 -0.15625,0.6875 -0.0625,0.25 -0.15625,0.46875 0.96875,0.3125 0.15625,-0.5 c 0.07044,-0.336831 0.158961,-0.666192 0.25,-1 l 0.09375,-0.5 z M 13.84375,19 l 0.125,0 c 0.281375,0 0.500006,0.2181 0.5,0.5 6e-6,0.2819 -0.218625,0.5 -0.5,0.5 -0.281376,0 -0.500007,-0.2181 -0.5,-0.5 -6e-6,-0.242434 0.151158,-0.450476 0.375,-0.5 z m 4.0625,0 c 0.281375,0 0.500006,0.2181 0.5,0.5 6e-6,0.2819 -0.218625,0.5 -0.5,0.5 -0.281375,0 -0.500006,-0.2181 -0.5,-0.5 -6e-6,-0.2819 0.218625,-0.5 0.5,-0.5 z m -13,1.40625 -0.875,0.4375 0.21875,0.4375 c 0.1132324,0.327834 0.3035633,0.602473 0.46875,0.90625 l 0.25,0.4375 0.875,-0.5 -0.25,-0.4375 -0.3125,-0.53125 -0.15625,-0.3125 z m 22.1875,0 -0.21875,0.4375 -0.15625,0.3125 -0.3125,0.53125 -0.25,0.4375 0.875,0.5 0.25,-0.4375 c 0.189859,-0.294965 0.33556,-0.599793 0.5,-0.90625 L 28,20.84375 z M 15.84375,26 c -0.469583,0.07425 -0.849584,0.524619 -0.84375,1 0,0.523599 0.476401,1 1,1 0.523599,0 1,-0.476401 1,-1 0,-0.523599 -0.476401,-1 -1,-1 -0.05198,-0.0041 -0.104273,-0.0041 -0.15625,0 z" color="#000" font-size="medium" overflow="visible" style="text-indent:0;text-align:start;line-height:125%;text-transform:none;block-progression:tb" font-family="sans-serif" font-weight="400" letter-spacing="0" word-spacing="0"/></g></svg>